<svg width="25" height="25" viewBox="0 0 25 25" fill="none" xmlns="http://www.w3.org/2000/svg">
<path d="M23.1251 18.3682L14.585 3.53717C14.3716 3.17382 14.067 2.87254 13.7013 2.66321C13.3355 2.45387 12.9215 2.34375 12.5001 2.34375C12.0787 2.34375 11.6646 2.45387 11.2989 2.66321C10.9332 2.87254 10.6285 3.17382 10.4151 3.53717L1.87507 18.3682C1.66974 18.7197 1.56152 19.1194 1.56152 19.5264C1.56152 19.9335 1.66974 20.3332 1.87507 20.6846C2.08575 21.0502 2.38989 21.3531 2.75628 21.5623C3.12268 21.7715 3.53814 21.8794 3.96003 21.8751H21.0401C21.4617 21.8791 21.8767 21.771 22.2428 21.5618C22.6088 21.3526 22.9126 21.0499 23.1231 20.6846C23.3288 20.3334 23.4373 19.9337 23.4376 19.5267C23.438 19.1197 23.3301 18.7198 23.1251 18.3682ZM21.7706 19.9024C21.6961 20.0294 21.5892 20.1343 21.4609 20.2064C21.3325 20.2785 21.1873 20.3151 21.0401 20.3126H3.96003C3.81284 20.3151 3.66762 20.2785 3.53926 20.2064C3.4109 20.1343 3.30401 20.0294 3.22956 19.9024C3.16213 19.7882 3.12655 19.6581 3.12655 19.5255C3.12655 19.3929 3.16213 19.2627 3.22956 19.1485L11.7696 4.31745C11.8456 4.19105 11.9529 4.08647 12.0813 4.01386C12.2096 3.94125 12.3546 3.90309 12.502 3.90309C12.6495 3.90309 12.7944 3.94125 12.9228 4.01386C13.0511 4.08647 13.1585 4.19105 13.2344 4.31745L21.7745 19.1485C21.8413 19.263 21.8762 19.3934 21.8755 19.526C21.8749 19.6586 21.8386 19.7886 21.7706 19.9024ZM11.7188 14.0626V10.1563C11.7188 9.94911 11.8011 9.7504 11.9476 9.60389C12.0942 9.45737 12.2929 9.37506 12.5001 9.37506C12.7073 9.37506 12.906 9.45737 13.0525 9.60389C13.199 9.7504 13.2813 9.94911 13.2813 10.1563V14.0626C13.2813 14.2698 13.199 14.4685 13.0525 14.615C12.906 14.7615 12.7073 14.8438 12.5001 14.8438C12.2929 14.8438 12.0942 14.7615 11.9476 14.615C11.8011 14.4685 11.7188 14.2698 11.7188 14.0626ZM13.6719 17.5782C13.6719 17.81 13.6032 18.0365 13.4745 18.2292C13.3457 18.422 13.1627 18.5722 12.9485 18.6609C12.7344 18.7496 12.4988 18.7728 12.2715 18.7275C12.0441 18.6823 11.8353 18.5707 11.6714 18.4068C11.5075 18.2429 11.3959 18.0341 11.3507 17.8068C11.3055 17.5795 11.3287 17.3439 11.4174 17.1297C11.5061 16.9156 11.6563 16.7326 11.849 16.6038C12.0417 16.475 12.2683 16.4063 12.5001 16.4063C12.8109 16.4063 13.1089 16.5298 13.3287 16.7495C13.5485 16.9693 13.6719 17.2674 13.6719 17.5782Z" fill="#F08C77"/>
</svg>
