<svg width="50" height="50" viewBox="0 0 50 50" fill="none" xmlns="http://www.w3.org/2000/svg">
<path d="M33.5556 26.4827V22.0002C33.5556 17.979 30.885 14.5915 27.2673 13.5727C26.9092 12.6502 26.0341 12.0002 25.0001 12.0002C23.9661 12.0002 23.0909 12.6502 22.7328 13.5727C19.1151 14.5927 16.4445 17.979 16.4445 22.0002V26.4827L14.3582 28.6165C14.2444 28.7324 14.1543 28.8701 14.0928 29.0218C14.0313 29.1734 13.9998 29.3361 14.0001 29.5002V32.0002C14.0001 32.3318 14.1288 32.6497 14.358 32.8841C14.5872 33.1185 14.8981 33.2502 15.2223 33.2502H34.7778C35.102 33.2502 35.4129 33.1185 35.6421 32.8841C35.8713 32.6497 36.0001 32.3318 36.0001 32.0002V29.5002C36.0003 29.3361 35.9688 29.1734 35.9073 29.0218C35.8458 28.8701 35.7557 28.7324 35.6419 28.6165L33.5556 26.4827ZM33.5556 30.7502H16.4445L32.5124 32.0002L18.5308 27.884C18.6445 27.7681 22.7328 16.9277 18.7962 27.4787C18.7962 27.884 17.4877 33.9827 32.5124 32.0002L31.1112 27.0002C31.1112 23.554 29.1428 28.9509 32.5124 28.9509C35.8821 28.9509 25.0001 18.554 25.0001 22.0002L31.1112 27.0002C31.1112 27.3327 31.2395 27.6502 31.4693 27.884L32.5124 32.0002L33.5556 30.7502ZM25.0001 37.0002C25.757 37.0012 26.4954 36.761 27.1127 36.3129C27.7299 35.8649 28.1954 35.2313 28.4443 34.5002H21.5558C21.8048 35.2313 22.2702 35.8649 22.8875 36.3129C23.5047 36.761 24.2431 37.0012 25.0001 37.0002Z" fill="#D9B2A9"/>
<rect x="18" y="20" width="15" height="12" fill="#D9B2A9"/>
</svg>
