<svg width="50" height="50" viewBox="0 0 50 50" fill="none" xmlns="http://www.w3.org/2000/svg">
<path d="M33.5556 26.4825V22C33.5556 17.9787 30.885 14.5912 27.2672 13.5725C26.9091 12.65 26.034 12 25 12C23.966 12 23.0909 12.65 22.7328 13.5725C19.115 14.5925 16.4444 17.9787 16.4444 22V26.4825L14.3581 28.6162C14.2444 28.7321 14.1542 28.8699 14.0927 29.0215C14.0313 29.1732 13.9998 29.3358 14 29.5V32C14 32.3315 14.1288 32.6495 14.358 32.8839C14.5872 33.1183 14.8981 33.25 15.2222 33.25H34.7778C35.1019 33.25 35.4128 33.1183 35.642 32.8839C35.8712 32.6495 36 32.3315 36 32V29.5C36.0002 29.3358 35.9687 29.1732 35.9073 29.0215C35.8458 28.8699 35.7556 28.7321 35.6419 28.6162L33.5556 26.4825ZM33.5556 30.75H16.4444V30.0175L18.5308 27.8837C18.6445 27.7679 18.7347 27.6301 18.7961 27.4785C18.8576 27.3268 18.8891 27.1642 18.8889 27V22C18.8889 18.5537 21.6303 15.75 25 15.75C28.3697 15.75 31.1111 18.5537 31.1111 22V27C31.1111 27.3325 31.2394 27.65 31.4692 27.8837L33.5556 30.0175V30.75ZM25 37C25.7569 37.001 26.4953 36.7607 27.1126 36.3127C27.7299 35.8647 28.1953 35.2311 28.4442 34.5H21.5558C21.8047 35.2311 22.2701 35.8647 22.8874 36.3127C23.5047 36.7607 24.2431 37.001 25 37Z" fill="#D9B2A9"/>
</svg>
