<svg width="50" height="50" viewBox="0 0 50 50" fill="none" xmlns="http://www.w3.org/2000/svg">
<path d="M13 21.3333V35.2222C13 35.9589 13.3292 36.6655 13.9153 37.1864C14.5013 37.7073 15.2962 38 16.125 38H34.875C35.7038 38 36.4987 37.7073 37.0847 37.1864C37.6708 36.6655 38 35.9589 38 35.2222V21.3333M13 21.3333V18.5556C13 17.8188 13.3292 17.1123 13.9153 16.5914C14.5013 16.0704 15.2962 15.7778 16.125 15.7778H19.25M13 21.3333H38M38 21.3333V18.5556C38 17.8188 37.6708 17.1123 37.0847 16.5914C36.4987 16.0704 35.7038 15.7778 34.875 15.7778H31.75M19.25 15.7778H31.75M19.25 15.7778V13M31.75 15.7778V13" stroke="#D9B2A9" stroke-width="2" stroke-linecap="round" stroke-linejoin="round"/>
</svg>
