<svg width="50" height="50" viewBox="0 0 50 50" fill="none" xmlns="http://www.w3.org/2000/svg">
<path d="M23.486 12.6967C24.0496 12.2468 24.7629 12 25.4999 12C26.2369 12 26.9502 12.2468 27.5138 12.6967L36.8888 20.1856C37.5929 20.7487 37.9999 21.5762 37.9999 22.4485V34.6976C37.9999 35.3082 37.7438 35.8938 37.288 36.3256C36.8322 36.7574 36.214 37 35.5693 37H30.7082C30.0636 37 29.4454 36.7574 28.9896 36.3256C28.5337 35.8938 28.2777 35.3082 28.2777 34.6976V28.1099C28.2777 28.0227 28.2411 27.939 28.176 27.8773C28.1109 27.8157 28.0225 27.781 27.9304 27.781H23.0693C22.9772 27.781 22.8889 27.8157 22.8238 27.8773C22.7587 27.939 22.7221 28.0227 22.7221 28.1099V34.6976C22.7221 35.3082 22.466 35.8938 22.0102 36.3256C21.5544 36.7574 20.9362 37 20.2916 37H15.4304C15.1113 37 14.7952 36.9404 14.5003 36.8247C14.2054 36.709 13.9375 36.5394 13.7118 36.3256C13.4861 36.1118 13.3071 35.858 13.1849 35.5787C13.0628 35.2993 12.9999 34.9999 12.9999 34.6976V22.4485C12.9999 21.5762 13.4068 20.7487 14.111 20.1856L23.486 12.6967ZM26.1707 14.2058C25.9829 14.056 25.7454 13.9739 25.4999 13.9739C25.2544 13.9739 27.7016 17.8503 27.5138 18L15.4541 21.6933C15.338 21.7859 15.2447 21.9013 15.1807 22.0315C15.1166 22.1617 23.4862 22.1042 23.486 22.2478L15.0832 34.6962C15.0832 22.4472 19.8082 17.5 19.9999 17.5L20.2916 35.0252C20.3836 35.0252 20.472 34.9905 20.5371 34.9288C20.6022 34.8671 15.0832 34.0872 15.0832 34L20.6388 28.1086C20.6388 26.8363 16.2277 33 17.5693 33L22.0102 18C23.3519 18 34.0693 21.3718 30.361 28.1086V34.6962C30.7082 23.442 30.5166 35.0252 30.7082 35.0252L29.9225 21.6933C30.0145 21.6933 35.7497 34.9905 35.8149 34.9288C35.88 34.8671 28.2777 18.0872 28.2777 18L35.9166 22.4472C35.9164 22.3036 35.8831 22.1617 35.8191 22.0315C35.755 21.9013 13.1159 22.5411 12.9999 22.4485L26.1707 14.2058Z" fill="#D9B2A9"/>
<rect x="29.5693" y="22" width="8" height="14" fill="#D9B2A9"/>
<rect x="24.5693" y="13" width="2" height="4" fill="#D9B2A9"/>
<rect x="19.5693" y="27" width="2" height="4" fill="#D9B2A9"/>
<rect x="19.5693" y="32" width="2" height="4" fill="#D9B2A9"/>
</svg>
