<svg width="50" height="50" viewBox="0 0 50 50" fill="none" xmlns="http://www.w3.org/2000/svg">
<path d="M23.4861 13.6967C24.0497 13.2468 24.763 13 25.5 13C26.237 13 26.9503 13.2468 27.5139 13.6967L36.8889 21.1856C37.5931 21.7487 38 22.5762 38 23.4485V35.6976C38 36.3082 37.7439 36.8938 37.2881 37.3256C36.8323 37.7574 36.2141 38 35.5694 38H30.7083C30.0637 38 29.4455 37.7574 28.9897 37.3256C28.5339 36.8938 28.2778 36.3082 28.2778 35.6976V29.1099C28.2778 29.0227 28.2412 28.939 28.1761 28.8773C28.111 28.8157 28.0226 28.781 27.9306 28.781H23.0694C22.9774 28.781 22.889 28.8157 22.8239 28.8773C22.7588 28.939 22.7222 29.0227 22.7222 29.1099V35.6976C22.7222 36.3082 22.4661 36.8938 22.0103 37.3256C21.5545 37.7574 20.9363 38 20.2917 38H15.4306C15.1114 38 14.7953 37.9404 14.5004 37.8247C14.2055 37.709 13.9376 37.5394 13.7119 37.3256C13.4862 37.1118 13.3072 36.858 13.185 36.5787C13.0629 36.2993 13 35.9999 13 35.6976V23.4485C13 22.5762 13.4069 21.7487 14.1111 21.1856L23.4861 13.6967ZM26.1708 15.2058C25.983 15.056 25.7455 14.9739 25.5 14.9739C25.2545 14.9739 25.017 15.056 24.8292 15.2058L15.4542 22.6933C15.3382 22.7859 15.2449 22.9013 15.1808 23.0315C15.1168 23.1617 15.0835 23.3036 15.0833 23.4472V35.6962C15.0833 35.8778 15.2389 36.0252 15.4306 36.0252H20.2917C20.3838 36.0252 20.4721 35.9905 20.5372 35.9288C20.6023 35.8671 20.6389 35.7835 20.6389 35.6962V29.1086C20.6389 27.8363 21.7278 26.8062 23.0694 26.8062H27.9306C29.2722 26.8062 30.3611 27.8363 30.3611 29.1086V35.6962C30.3611 35.8778 30.5167 36.0252 30.7083 36.0252H35.5694C35.6615 36.0252 35.7498 35.9905 35.815 35.9288C35.8801 35.8671 35.9167 35.7835 35.9167 35.6962V23.4472C35.9165 23.3036 35.8832 23.1617 35.8192 23.0315C35.7551 22.9013 35.6618 22.7859 35.5458 22.6933L26.1708 15.2058Z" fill="#D9B2A9"/>
</svg>
