<svg width="45" height="45" viewBox="0 0 45 45" fill="none" xmlns="http://www.w3.org/2000/svg">
<g clip-path="url(#clip0_131_29)">
<path d="M0 22.5C0 16.5326 2.37053 10.8097 6.5901 6.5901C10.8097 2.37053 16.5326 0 22.5 0C28.4674 0 34.1903 2.37053 38.4099 6.5901C42.6295 10.8097 45 16.5326 45 22.5C45 28.4674 42.6295 34.1903 38.4099 38.4099C34.1903 42.6295 28.4674 45 22.5 45C16.5326 45 10.8097 42.6295 6.5901 38.4099C2.37053 34.1903 0 28.4674 0 22.5ZM22.5 4.21875C17.6515 4.21875 13.0016 6.1448 9.5732 9.5732C6.1448 13.0016 4.21875 17.6515 4.21875 22.5C4.21875 27.3485 6.1448 31.9984 9.5732 35.4268C13.0016 38.8552 17.6515 40.7812 22.5 40.7812C27.3485 40.7812 31.9984 38.8552 35.4268 35.4268C38.8552 31.9984 40.7812 27.3485 40.7812 22.5C40.7812 17.6515 38.8552 13.0016 35.4268 9.5732C31.9984 6.1448 27.3485 4.21875 22.5 4.21875ZM18.2812 21.7969C18.2812 21.2374 18.5035 20.7009 18.8991 20.3053C19.2947 19.9097 19.8312 19.6875 20.3906 19.6875H23.2031C23.7626 19.6875 24.2991 19.9097 24.6947 20.3053C25.0903 20.7009 25.3125 21.2374 25.3125 21.7969V29.5312H26.0156C26.5751 29.5312 27.1116 29.7535 27.5072 30.1491C27.9028 30.5447 28.125 31.0812 28.125 31.6406C28.125 32.2001 27.9028 32.7366 27.5072 33.1322C27.1116 33.5278 26.5751 33.75 26.0156 33.75H20.3906C19.8312 33.75 19.2947 33.5278 18.8991 33.1322C18.5035 32.7366 18.2812 32.2001 18.2812 31.6406C18.2812 31.0812 18.5035 30.5447 18.8991 30.1491C19.2947 29.7535 19.8312 29.5312 20.3906 29.5312H21.0938V23.9062H20.3906C19.8312 23.9062 19.2947 23.684 18.8991 23.2884C18.5035 22.8928 18.2812 22.3563 18.2812 21.7969ZM22.5 16.875C21.7541 16.875 21.0387 16.5787 20.5113 16.0512C19.9838 15.5238 19.6875 14.8084 19.6875 14.0625C19.6875 13.3166 19.9838 12.6012 20.5113 12.0738C21.0387 11.5463 21.7541 11.25 22.5 11.25C23.2459 11.25 23.9613 11.5463 24.4887 12.0738C25.0162 12.6012 25.3125 13.3166 25.3125 14.0625C25.3125 14.8084 25.0162 15.5238 24.4887 16.0512C23.9613 16.5787 23.2459 16.875 22.5 16.875Z" fill="#D9B2A9"/>
</g>
<defs>
<clipPath id="clip0_131_29">
<rect width="45" height="45" fill="white"/>
</clipPath>
</defs>
</svg>
