<svg width="50" height="50" viewBox="0 0 50 50" fill="none" xmlns="http://www.w3.org/2000/svg">
<path d="M32.2917 29.1667H30.6458L30.0625 28.6042C31.3645 27.0916 32.316 25.31 32.8491 23.3867C33.3821 21.4635 33.4835 19.4462 33.1458 17.4792C32.1667 11.6875 27.3333 7.06251 21.5 6.35418C19.4492 6.09473 17.3662 6.30787 15.4105 6.97728C13.4547 7.64669 11.678 8.75463 10.2163 10.2163C8.75463 11.678 7.64669 13.4547 6.97728 15.4105C6.30787 17.3662 6.09473 19.4492 6.35418 21.5C7.06251 27.3333 11.6875 32.1667 17.4792 33.1458C19.4462 33.4834 21.4635 33.3821 23.3867 32.8491C25.31 32.316 27.0916 31.3645 28.6042 30.0625L29.1667 30.6458V32.2917L38.0208 41.1458C38.875 42 40.2708 42 41.125 41.1458C41.9792 40.2917 41.9792 38.8958 41.125 38.0417L32.2917 29.1667ZM19.7917 29.1667C14.6042 29.1667 10.4167 24.9792 10.4167 19.7917C10.4167 14.6042 14.6042 10.4167 19.7917 10.4167C24.9792 10.4167 29.1667 14.6042 29.1667 19.7917C29.1667 24.9792 24.9792 29.1667 19.7917 29.1667Z" fill="#A5A68F"/>
</svg>
