<svg width="50" height="50" viewBox="0 0 50 50" fill="none" xmlns="http://www.w3.org/2000/svg">
<path d="M35.2562 31.3721C34.474 30.5893 33.56 29.9504 32.5562 29.4846C33.9718 28.3378 34.8749 26.5878 34.8749 24.6254C34.8749 21.163 31.9875 18.3225 28.525 18.3756C25.1156 18.4287 22.3688 21.2067 22.3688 24.6254C22.3688 26.5878 23.275 28.3378 24.6875 29.4846C23.6835 29.95 22.7695 30.589 21.9875 31.3721C20.2813 33.0814 19.3125 35.3376 19.25 37.7438C19.2492 37.7771 19.2551 37.8103 19.2672 37.8413C19.2794 37.8724 19.2977 37.9007 19.321 37.9246C19.3443 37.9485 19.3722 37.9674 19.4029 37.9804C19.4336 37.9933 19.4667 38 19.5 38H21.25C21.3844 38 21.4969 37.8938 21.5 37.7594C21.5594 35.9469 22.2938 34.2501 23.5844 32.9626C24.2448 32.2987 25.0304 31.7724 25.8956 31.4141C26.7608 31.0557 27.6885 30.8726 28.625 30.8752C30.5281 30.8752 32.3187 31.6158 33.6656 32.9626C34.9531 34.2501 35.6874 35.9469 35.7499 37.7594C35.7531 37.8938 35.8656 38 35.9999 38H37.7499C37.7833 38 37.8163 37.9933 37.8471 37.9804C37.8778 37.9674 37.9056 37.9485 37.9289 37.9246C37.9522 37.9007 37.9705 37.8724 37.9827 37.8413C37.9949 37.8103 38.0008 37.7771 37.9999 37.7438C37.9374 35.3376 36.9687 33.0814 35.2562 31.3721ZM28.625 28.6253C27.5562 28.6253 26.55 28.2097 25.7969 27.4534C25.4189 27.0785 25.1204 26.6312 24.919 26.1383C24.7177 25.6455 24.6177 25.1171 24.625 24.5848C24.6344 23.5598 25.0438 22.5692 25.7594 21.8348C26.5094 21.0661 27.5125 20.638 28.5844 20.6255C29.6437 20.6161 30.6718 21.0286 31.4281 21.7692C32.2031 22.5286 32.6281 23.5442 32.6281 24.6254C32.6281 25.6941 32.2125 26.6972 31.4562 27.4534C31.0852 27.8262 30.6439 28.1217 30.158 28.3229C29.672 28.524 29.1509 28.6268 28.625 28.6253ZM20.7969 25.4504C20.7688 25.1785 20.7532 24.9035 20.7532 24.6254C20.7532 24.1285 20.8 23.6442 20.8875 23.1723C20.9094 23.0598 20.85 22.9442 20.7469 22.8973C20.3219 22.7067 19.9313 22.4442 19.5938 22.113C19.1961 21.7274 18.8832 21.2631 18.6749 20.7498C18.4667 20.2365 18.3678 19.6855 18.3844 19.1318C18.4125 18.1287 18.8157 17.1756 19.5188 16.4569C20.2907 15.6663 21.3282 15.235 22.4313 15.2475C23.4281 15.2569 24.3906 15.6413 25.1188 16.3225C25.3656 16.5538 25.5781 16.81 25.7562 17.085C25.8187 17.1819 25.9406 17.2225 26.0469 17.185C26.5969 16.9944 27.1781 16.86 27.775 16.7975C27.95 16.7787 28.05 16.5913 27.9719 16.435C26.9562 14.4257 24.8813 13.0382 22.4813 13.0007C19.0157 12.9476 16.1282 15.7882 16.1282 19.2474C16.1282 21.2099 17.0313 22.9598 18.4469 24.1067C17.4532 24.566 16.5376 25.2004 15.7438 25.9941C14.0313 27.7034 13.0626 29.9596 13.0001 32.3689C12.9992 32.4023 13.0051 32.4354 13.0173 32.4665C13.0295 32.4976 13.0478 32.5259 13.0711 32.5497C13.0944 32.5736 13.1222 32.5926 13.1529 32.6055C13.1837 32.6185 13.2167 32.6252 13.2501 32.6252H15.0032C15.1376 32.6252 15.2501 32.5189 15.2532 32.3845C15.3126 30.5721 16.0469 28.8753 17.3376 27.5878C18.2563 26.6691 19.3813 26.0316 20.6094 25.7222C20.7313 25.691 20.8125 25.5754 20.7969 25.4504Z" fill="#D9B2A9"/>
</svg>
