<svg width="50" height="50" viewBox="0 0 50 50" fill="none" xmlns="http://www.w3.org/2000/svg">
<path fill-rule="evenodd" clip-rule="evenodd" d="M17 12C14.2386 12 12 14.2386 12 17V33C12 35.7614 14.2386 38 17 38H33C35.7614 38 38 35.7614 38 33V17C38 14.2386 35.7614 12 33 12H17ZM17.1713 17.1713C17.6866 16.656 18.3957 16.3422 19.6464 16.1741C20.9259 16.0021 22.6144 16 25 16C27.3851 16 29.0736 16.0021 30.3532 16.1741C31.6042 16.3423 32.3134 16.656 32.8287 17.1713C33.344 17.6866 33.6578 18.3957 33.8259 19.6464C33.9979 20.9259 34 22.6144 34 25C34 27.3851 33.9979 29.0736 33.8259 30.3532C33.6577 31.6042 33.344 32.3134 32.8287 32.8287C32.3134 33.344 31.6043 33.6578 30.3536 33.8259C29.0741 33.9979 27.3856 34 25 34C22.6149 34 20.9264 33.9979 19.6468 33.8259C18.3958 33.6577 17.6866 33.344 17.1713 32.8287C16.656 32.3134 16.3422 31.6043 16.1741 30.3536C16.0021 29.0741 16 27.3856 16 25C16 22.6149 16.0021 20.9264 16.1741 19.6468C16.3423 18.3958 16.656 17.6866 17.1713 17.1713ZM25 14L24.9252 14C22.6313 14 20.8081 14 19.3799 14.1919C17.9075 14.3899 16.706 14.8082 15.7571 15.7571C14.8082 16.706 14.3899 17.9078 14.1919 19.3803C14 20.8087 14 22.6318 14 24.9252L14 25L14 25.0748C14 27.3687 14 29.1919 14.1919 30.6201C14.3899 32.0925 14.8082 33.294 15.7571 34.2429C16.706 35.1918 17.9078 35.6101 19.3803 35.8081C20.8087 36 22.6318 36 24.9252 36H25H25.0748C27.3687 36 29.1919 36 30.6201 35.8081C32.0925 35.6101 33.294 35.1918 34.2429 34.2429C35.1918 33.294 35.6101 32.0922 35.8081 30.6197C36 29.1913 36 27.3682 36 25.0748V25V24.9252C36 22.6313 36 20.8081 35.8081 19.3799C35.6101 17.9075 35.1918 16.706 34.2429 15.7571C33.294 14.8082 32.0921 14.3899 30.6197 14.1919C29.1913 14 27.3682 14 25.0748 14L25 14ZM19.7368 18.7368C19.1846 18.7368 18.7368 19.1846 18.7368 19.7368C18.7368 20.2891 19.1846 20.7368 19.7368 20.7368H20.7895C21.3418 20.7368 21.7895 20.2891 21.7895 19.7368C21.7895 19.1846 21.3418 18.7368 20.7895 18.7368H19.7368ZM23.9474 18.7368C23.3951 18.7368 22.9474 19.1846 22.9474 19.7368C22.9474 20.2891 23.3951 20.7368 23.9474 20.7368H30.2632C30.8154 20.7368 31.2632 20.2891 31.2632 19.7368C31.2632 19.1846 30.8154 18.7368 30.2632 18.7368H23.9474ZM19.7368 24C19.1846 24 18.7368 24.4477 18.7368 25C18.7368 25.5523 19.1846 26 19.7368 26H20.7895C21.3418 26 21.7895 25.5523 21.7895 25C21.7895 24.4477 21.3418 24 20.7895 24H19.7368ZM23.9474 24C23.3951 24 22.9474 24.4477 22.9474 25C22.9474 25.5523 23.3951 26 23.9474 26H30.2632C30.8154 26 31.2632 25.5523 31.2632 25C31.2632 24.4477 30.8154 24 30.2632 24H23.9474ZM19.7368 29.2632C19.1846 29.2632 18.7368 29.7109 18.7368 30.2632C18.7368 30.8154 19.1846 31.2632 19.7368 31.2632H20.7895C21.3418 31.2632 21.7895 30.8154 21.7895 30.2632C21.7895 29.7109 21.3418 29.2632 20.7895 29.2632H19.7368ZM23.9474 29.2632C23.3951 29.2632 22.9474 29.7109 22.9474 30.2632C22.9474 30.8154 23.3951 31.2632 23.9474 31.2632H30.2632C30.8154 31.2632 31.2632 30.8154 31.2632 30.2632C31.2632 29.7109 30.8154 29.2632 30.2632 29.2632H23.9474Z" fill="#D9B2A9"/>
</svg>
