<svg width="50" height="50" viewBox="0 0 50 50" fill="none" xmlns="http://www.w3.org/2000/svg">
<path d="M24.1842 17.9211H32.0789M18.9211 17.9211H20.2368M18.9211 24.5H20.2368M18.9211 31.0789H20.2368M24.1842 24.5H32.0789M24.1842 31.0789H32.0789M13 24.5C13 18.6079 13 15.6605 14.8303 13.8303C16.6605 12 19.6066 12 25.5 12C31.3921 12 34.3395 12 36.1697 13.8303C38 15.6605 38 18.6066 38 24.5C38 30.3921 38 33.3395 36.1697 35.1697C34.3395 37 31.3934 37 25.5 37C19.6079 37 16.6605 37 14.8303 35.1697C13 33.3395 13 30.3934 13 24.5Z" stroke="#D9B2A9" stroke-width="2" stroke-linecap="round" stroke-linejoin="round"/>
</svg>
