<svg width="50" height="50" viewBox="0 0 50 50" fill="none" xmlns="http://www.w3.org/2000/svg">
<circle cx="25" cy="25" r="25" fill="#F2DBD5"/>
<g clip-path="url(#clip0_68_2)">
<path fill-rule="evenodd" clip-rule="evenodd" d="M25.5 26.9583C28.9942 26.9583 32.1719 27.9704 34.5096 29.3967C35.6763 30.1083 36.6738 30.9483 37.3942 31.8612C38.1029 32.7581 38.625 33.8314 38.625 34.9792C38.625 36.2114 38.0256 37.1827 37.1623 37.8754C36.3456 38.5317 35.2679 38.9662 34.1231 39.2696C31.8219 39.8777 28.7506 40.0833 25.5 40.0833C22.2494 40.0833 19.1781 39.8792 16.8769 39.2696C15.7321 38.9662 14.6544 38.5317 13.8377 37.8754C12.9729 37.1812 12.375 36.2114 12.375 34.9792C12.375 33.8314 12.8971 32.7581 13.6058 31.8598C14.3263 30.9483 15.3223 30.1098 16.4904 29.3952C18.8281 27.9719 22.0073 26.9583 25.5 26.9583ZM25.5 29.875C22.5498 29.875 19.8956 30.7354 18.01 31.886C17.0665 32.4606 16.3548 33.0848 15.8954 33.6681C15.4229 34.266 15.2917 34.7181 15.2917 34.9792C15.2917 35.1571 15.3456 35.3452 15.6635 35.6004C16.0267 35.8921 16.6581 36.1939 17.6235 36.4492C19.5456 36.9596 22.3077 37.1667 25.5 37.1667C28.6938 37.1667 31.4544 36.9581 33.375 36.4492C34.3419 36.1939 34.9733 35.8921 35.3365 35.6004C35.6544 35.3452 35.7083 35.1571 35.7083 34.9792C35.7083 34.7167 35.5771 34.266 35.106 33.6681C34.6452 33.0848 33.9335 32.4606 32.99 31.886C31.1044 30.7339 28.4502 29.875 25.5 29.875ZM25.5 10.9167C27.4339 10.9167 29.2885 11.6849 30.656 13.0523C32.0234 14.4198 32.7917 16.2745 32.7917 18.2083C32.7917 20.1422 32.0234 21.9969 30.656 23.3643C29.2885 24.7318 27.4339 25.5 25.5 25.5C23.5661 25.5 21.7115 24.7318 20.344 23.3643C18.9766 21.9969 18.2083 20.1422 18.2083 18.2083C18.2083 16.2745 18.9766 14.4198 20.344 13.0523C21.7115 11.6849 23.5661 10.9167 25.5 10.9167ZM25.5 13.8333C24.9255 13.8333 24.3566 13.9465 23.8258 14.1664C23.295 14.3862 22.8127 14.7085 22.4064 15.1147C22.0002 15.521 21.6779 16.0033 21.458 16.5341C21.2382 17.0649 21.125 17.6338 21.125 18.2083C21.125 18.7829 21.2382 19.3518 21.458 19.8826C21.6779 20.4134 22.0002 20.8957 22.4064 21.3019C22.8127 21.7082 23.295 22.0304 23.8258 22.2503C24.3566 22.4702 24.9255 22.5833 25.5 22.5833C26.6603 22.5833 27.7731 22.1224 28.5936 21.3019C29.4141 20.4814 29.875 19.3686 29.875 18.2083C29.875 17.048 29.4141 15.9352 28.5936 15.1147C27.7731 14.2943 26.6603 13.8333 25.5 13.8333Z" fill="#D9B2A9"/>
</g>
<defs>
<clipPath id="clip0_68_2">
<rect width="35" height="35" fill="white" transform="translate(8 8)"/>
</clipPath>
</defs>
</svg>
